<svg xmlns="http://www.w3.org/2000/svg" fill="none" viewBox="0 0 128 105" height="105" width="128">
<g clip-path="url(#clip0_153_60)">
<path fill="#1C1B1A" d="M30 0V68H98V0H30ZM95.8707 24.8C92.7103 13.8859 84.0806 5.27148 73.1574 2.12928H95.8707V24.8ZM95.0433 34.0167C95.0433 51.1361 81.1179 65.0616 63.9985 65.0616C46.8791 65.0616 32.9536 51.1361 32.9536 34.0167C32.9536 16.8973 46.8821 2.97186 63.9985 2.97186C81.1148 2.97186 95.0433 16.8973 95.0433 34.0167ZM54.8426 2.12928C43.9194 5.27148 35.2897 13.8859 32.1293 24.8V2.12928H54.8426ZM32.1293 43.2335C35.2776 54.108 43.8586 62.7011 54.724 65.8707H32.1293V43.2335ZM73.273 65.8707C84.1414 62.7011 92.7194 54.111 95.8677 43.2335V65.8707H73.273Z"></path>
<path fill="#1C1B1A" d="M63.9985 41.4844C59.8707 41.4844 56.5125 38.1263 56.5125 33.9985C56.5125 29.8707 59.8707 26.5126 63.9985 26.5126C68.1262 26.5126 71.4844 29.8707 71.4844 33.9985C71.4844 38.1263 68.1262 41.4844 63.9985 41.4844ZM63.9985 28.6419C61.0449 28.6419 58.6418 31.0449 58.6418 33.9985C58.6418 36.9521 61.0449 39.3552 63.9985 39.3552C66.9521 39.3552 69.3551 36.9521 69.3551 33.9985C69.3551 31.0449 66.9521 28.6419 63.9985 28.6419Z"></path>
</g>
<g clip-path="url(#clip1_153_60)">
<path fill="#1C1B1A" d="M0 95.6118H2.76717V97.0358H2.81873C3.46039 95.9505 4.20517 95.4682 5.30517 95.4682C5.56871 95.4682 5.74631 95.4854 5.87235 95.5371V98.0292H5.8036C4.02757 97.7822 2.89321 98.6493 2.89321 100.625V104.713H0V95.6118Z"></path>
<path fill="#1C1B1A" d="M6.21036 100.148C6.21036 97.4262 8.1067 95.3476 10.8796 95.3476C12.1744 95.3476 13.2056 95.7725 13.9848 96.4845C15.0676 97.4779 15.6004 99.0627 15.5832 100.912H9.05201C9.22961 102.14 9.90565 102.904 11.0916 102.904C11.8535 102.904 12.352 102.565 12.5983 101.997H15.4171C15.2223 102.812 14.6895 103.599 13.8931 104.15C13.1311 104.684 12.2088 104.988 11.0515 104.988C8.05514 104.988 6.20464 102.91 6.20464 100.148H6.21036ZM12.6556 99.189C12.5468 98.1038 11.8765 97.409 10.9369 97.409C9.8369 97.409 9.26971 98.1038 9.07492 99.189H12.6614H12.6556Z"></path>
<path fill="#1C1B1A" d="M15.5488 95.6118H18.528L19.7712 99.7231C20.0405 100.63 20.2696 101.555 20.2696 101.555H20.304C20.304 101.555 20.5332 100.63 20.8024 99.7231L22.0628 95.6118H24.956L21.8165 104.719H18.6941L15.5546 95.6118H15.5488Z"></path>
<path fill="#1C1B1A" d="M24.8071 102.175C24.8071 100.165 26.4055 99.5622 28.2847 99.3096C29.9862 99.0971 30.5935 98.9191 30.5935 98.2933C30.5935 97.7076 30.2211 97.3171 29.3503 97.3171C28.4279 97.3171 27.9638 97.7248 27.8779 98.4885H25.2139C25.2826 96.8003 26.5831 95.3591 29.3331 95.3591C30.6966 95.3591 31.6247 95.606 32.2779 96.1055C33.057 96.674 33.4294 97.564 33.4294 98.7009V103.289C33.4294 104.018 33.4982 104.426 33.7502 104.587V104.713H30.9487C30.8055 104.518 30.7195 104.162 30.6451 103.697H30.6107C30.0779 104.46 29.2815 104.943 27.9123 104.943C26.1019 104.943 24.8071 103.966 24.8071 102.169V102.175ZM30.668 101.463V100.378C30.2956 100.573 29.7628 100.716 29.1784 100.86C28.0612 101.107 27.5972 101.394 27.5972 102.089C27.5972 102.818 28.13 103.105 28.8404 103.105C29.9232 103.105 30.668 102.445 30.668 101.469V101.463Z"></path>
<path fill="#1C1B1A" d="M34.8388 95.6117H37.6231V96.8578H37.6747C38.3507 95.8816 39.2158 95.3476 40.4762 95.3476C42.4642 95.3476 43.633 96.7716 43.633 98.7986V104.724H40.7398V99.39C40.7398 98.4311 40.2585 97.7707 39.3189 97.7707C38.3794 97.7707 37.7205 98.5689 37.7205 99.6943V104.73H34.8273V95.6117H34.8388Z"></path>
<path fill="#1C1B1A" d="M44.5439 100.182C44.5439 97.4435 46.4231 95.3649 49.2991 95.3649C51.7683 95.3649 53.3438 96.8061 53.6131 98.8503H50.8288C50.6511 98.0349 50.1527 97.5009 49.3392 97.5009C48.096 97.5009 47.4772 98.5345 47.4772 100.188C47.4772 101.842 48.096 102.841 49.3392 102.841C50.2444 102.841 50.7944 102.307 50.9204 101.279H53.6876C53.6188 103.381 51.9459 105.012 49.3736 105.012C46.446 105.012 44.5439 102.933 44.5439 100.194V100.182Z"></path>
<path fill="#1C1B1A" d="M54.6042 92H57.4974V96.7314H57.549C58.2079 95.8587 58.987 95.3419 60.2474 95.3419C62.2354 95.3419 63.4042 96.7659 63.4042 98.7928V104.719H60.511V99.3843C60.511 98.4254 60.0297 97.765 59.0901 97.765C58.1506 97.765 57.4917 98.5632 57.4917 99.6886V104.724H54.5985V92H54.6042Z"></path>
<path fill="#1C1B1A" d="M64.2922 102.175C64.2922 100.165 65.8906 99.5622 67.7698 99.3096C69.4713 99.0971 70.0786 98.9191 70.0786 98.2933C70.0786 97.7076 69.7062 97.3171 68.8354 97.3171C67.913 97.3171 67.4489 97.7248 67.363 98.4885H64.6989C64.7677 96.8003 66.0625 95.3591 68.8182 95.3591C70.1874 95.3591 71.1098 95.606 71.763 96.1055C72.5421 96.674 72.9145 97.564 72.9145 98.7009V103.289C72.9145 104.018 72.9833 104.426 73.2353 104.587V104.713H70.4338C70.2906 104.518 70.2046 104.162 70.1302 103.697H70.0958C69.563 104.46 68.7666 104.943 67.3974 104.943C65.587 104.943 64.2922 103.966 64.2922 102.169V102.175ZM70.1531 101.463V100.378C69.7807 100.573 69.2479 100.716 68.6635 100.86C67.5463 101.107 67.0823 101.394 67.0823 102.089C67.0823 102.818 67.6151 103.105 68.3255 103.105C69.4083 103.105 70.1531 102.445 70.1531 101.469V101.463Z"></path>
<path fill="#1C1B1A" d="M74 100.168C74 97.3198 75.6328 95.3502 77.976 95.3502C79.2536 95.3502 79.9812 95.8843 80.514 96.6479H80.5656V92.0026H83.4588V104.721H80.6916V103.492H80.6572C80.1072 104.434 79.1677 105.003 77.976 105.003C75.65 105.003 74 103.205 74 100.162V100.168ZM80.6401 100.168C80.6401 98.6404 80.0213 97.538 78.7609 97.538C77.6094 97.538 76.9333 98.606 76.9333 100.133C76.9333 101.661 77.6093 102.712 78.7265 102.712C79.9354 102.712 80.6458 101.661 80.6458 100.168H80.6401Z"></path>
<path fill="#1C1B1A" d="M85.5213 97.4633H84.3525V95.6144H85.5213V94.954C85.5213 94.0123 85.7848 93.3175 86.266 92.8352C87.0452 92.0715 88.5577 91.8935 90.116 92.0543V94.0985C89.016 94.064 88.4145 94.1501 88.4145 95.1665V95.6086H90.116V97.4576H88.4145V104.716H85.5213V97.4576V97.4633Z"></path>
<path fill="#1C1B1A" d="M89.9357 101.727H92.9722V104.713H89.9357V101.727Z"></path>
<path fill="#1C1B1A" d="M93.5565 100.182C93.5565 97.4435 95.4357 95.3649 98.3117 95.3649C100.781 95.3649 102.356 96.8061 102.626 98.8503H99.8414C99.6638 98.0349 99.1653 97.5009 98.3518 97.5009C97.1086 97.5009 96.4898 98.5345 96.4898 100.188C96.4898 101.842 97.1086 102.841 98.3518 102.841C99.257 102.841 99.807 102.307 99.933 101.279H102.7C102.631 103.381 100.959 105.012 98.3862 105.012C95.4586 105.012 93.5565 102.933 93.5565 100.194V100.182Z"></path>
<path fill="#1C1B1A" d="M103.21 100.182C103.21 97.4435 105.164 95.3649 108.074 95.3649C110.985 95.3649 112.921 97.4435 112.921 100.182C112.921 102.921 111.002 105 108.074 105C105.147 105 103.21 102.921 103.21 100.182ZM109.993 100.182C109.993 98.5287 109.317 97.409 108.057 97.409C106.797 97.409 106.138 98.5287 106.138 100.182C106.138 101.836 106.797 102.939 108.057 102.939C109.317 102.939 109.993 101.836 109.993 100.182Z"></path>
<path fill="#1C1B1A" d="M113.895 95.6117H116.662V96.9094H116.714C117.281 95.9677 118.152 95.3419 119.464 95.3419C120.65 95.3419 121.56 95.962 122.019 96.9439H122.053C122.764 95.8414 123.738 95.3419 124.912 95.3419C126.969 95.3419 128 96.7487 128 98.7928V104.719H125.107V99.3096C125.107 98.3335 124.7 97.765 123.829 97.765C122.907 97.765 122.391 98.5287 122.391 99.6139V104.719H119.498V99.3096C119.498 98.3335 119.091 97.765 118.22 97.765C117.35 97.765 116.782 98.5287 116.782 99.6139V104.719H113.889V95.6117H113.895Z"></path>
</g>
<defs>
<clipPath id="clip0_153_60">
<rect transform="translate(30)" fill="white" height="68" width="68"></rect>
</clipPath>
<clipPath id="clip1_153_60">
<rect transform="translate(0 92)" fill="white" height="13" width="128"></rect>
</clipPath>
</defs>
</svg>
