<svg viewBox="0 0 1000 640" xmlns="http://www.w3.org/2000/svg" role="img">
  <title>Tarjeta </title>
  <defs>
    <filter id="pencil" x="-5%" y="-5%" width="110%" height="110%">
      <feTurbulence type="fractalNoise" baseFrequency="0.016 0.022" numOctaves="2" seed="3" result="n"/>
      <feDisplacementMap in="SourceGraphic" in2="n" scale="1.3" xChannelSelector="R" yChannelSelector="G"/>
    </filter>
    <filter id="grain" x="0" y="0" width="100%" height="100%">
      <feTurbulence type="fractalNoise" baseFrequency="0.9" numOctaves="2" seed="11" result="g"/>
      <feColorMatrix in="g" type="matrix" values="0 0 0 0 0 0 0 0 0 0 0 0 0 0 0 0 0 0 0.03 0"/>
      <feComposite in2="SourceGraphic" operator="over"/>
    </filter>
    <style>
      .h { font-family:Fraunces, Georgia, 'Times New Roman', serif; font-size:34px; fill:#1c1813; fill-opacity:0.92; }
      .b { font-family:'IBM Plex Mono', 'Courier New', monospace; font-size:16px; fill:#1c1813; fill-opacity:0.86; letter-spacing:0.2px; }
      .c { font-family:Fraunces, Georgia, 'Times New Roman', serif; font-style:italic; font-size:17px; fill:#1c1813; fill-opacity:0.62; }
      .s { font-family:'IBM Plex Mono', 'Courier New', monospace; font-size:13px; fill:#1c1813; fill-opacity:0.5; letter-spacing:2px; }
      .folio { font-family:'IBM Plex Mono', 'Courier New', monospace; font-size:15px; fill:#1c1813; fill-opacity:0.55; letter-spacing:5px; }
      .lbl { font-family:'IBM Plex Mono', 'Courier New', monospace; font-size:13px; letter-spacing:1px; }
      .sym { font-family:'IBM Plex Mono', 'Courier New', monospace; font-size:20px; font-weight:600; letter-spacing:1px; }
      .glyph { fill:none; stroke:#1c1813; stroke-opacity:0.5; stroke-width:1.6; stroke-linecap:round; stroke-linejoin:round; }
    </style>
  </defs>
  <rect width="1000" height="640" fill="#fbf7ee"/>
  <rect width="1000" height="640" fill="#fbf7ee" filter="url(#grain)"/>
  <rect x="28" y="28" width="944" height="584" fill="none" stroke="#1c1813" stroke-opacity="0.26" stroke-width="1.5"/>
  <g filter="url(#pencil)"><rect x="57.5" y="85.5" width="204" height="474" rx="3" fill="none" stroke="#ffffff" stroke-opacity="0.5" stroke-width="2"/>
    <rect x="56" y="84" width="204" height="474" rx="3" fill="none" stroke="#1c1813" stroke-opacity="0.36" stroke-width="1.6"/><g class="face" fill="none" stroke-linecap="round" stroke-linejoin="round">
    <g stroke="#ffffff" stroke-opacity="0.4" transform="translate(1,1.4)"><path d="M64 214 Q102 195 140 214 Q102 233 64 214 Z" stroke-width="1.8"/><path d="M176 214 Q214 195 252 214 Q214 233 176 214 Z" stroke-width="1.8"/><circle cx="102" cy="214" r="11" stroke-width="1.3"/><circle cx="214" cy="214" r="11" stroke-width="1.3"/><path d="M144 198 Q158 193 172 198" stroke-width="1.1"/></g>
    <g stroke="#1c1813" stroke-opacity="0.55"><path d="M64 214 Q102 195 140 214 Q102 233 64 214 Z" stroke-width="1.8"/><path d="M176 214 Q214 195 252 214 Q214 233 176 214 Z" stroke-width="1.8"/><circle cx="102" cy="214" r="11" stroke-width="1.3"/><circle cx="214" cy="214" r="11" stroke-width="1.3"/><path d="M144 198 Q158 193 172 198" stroke-width="1.1"/></g>
  </g><circle cx="102" cy="214" r="4.5" fill="#1c1813" fill-opacity="0.55"/><circle cx="214" cy="214" r="4.5" fill="#1c1813" fill-opacity="0.55"/><g class="glyph"><g transform="translate(95,360) scale(0.85)"><path d="M3 5 H13 V19 H3 Z"/></g><g transform="translate(110.3,360) scale(0.85)"><path d="M2 4 L8 12 L14 4 M8 12 V22"/></g><g transform="translate(125.6,360) scale(0.85)"><path d="M4 3 V22 M12 3 V22 M4 12 H12"/></g><g transform="translate(140.9,360) scale(0.85)"><path d="M8 2 V22"/></g><g transform="translate(156.20000000000002,360) scale(0.85)"><path d="M3 4 L8 20 L13 4"/></g><g transform="translate(171.50000000000003,360) scale(0.85)"><path d="M4 3 V22 M12 3 V22 M4 12 H12"/></g><g transform="translate(186.80000000000004,360) scale(0.85)"><path d="M8 2 V22"/></g><g transform="translate(202.10000000000005,360) scale(0.85)"><path d="M2 4 L8 12 L14 4 M8 12 V22"/></g><g transform="translate(217.40000000000006,360) scale(0.85)"><path d="M8 2 L14 12 L8 22 L2 12 Z"/></g><g transform="translate(232.70000000000007,360) scale(0.85)"><path d="M8 6 m-1 0 a1 1 0 1 0 2 0 a1 1 0 1 0 -2 0 M8 16 m-1 0 a1 1 0 1 0 2 0 a1 1 0 1 0 -2 0"/></g></g></g>
  <text class="folio" x="300" y="100"></text>
  <text class="h" x="300" y="158">Hola.</text><text class="b" x="300" y="210">Si esto llegó a tus manos es porque confiamos en lo que</text><text class="b" x="300" y="240">piensas, lo que haces y lo que puedes aportar para</text><text class="b" x="300" y="270">co-crear un nuevo espacio fértil para la comunidad</text><text class="b" x="300" y="300">y la industria.</text><text class="b" x="300" y="330"></text><text class="b" x="300" y="360">Somos promotores, artistas y programadores que buscamos</text><text class="b" x="300" y="390">crear un refugio democrático para recuperar el medio. Un</text><text class="b" x="300" y="420">lugar para compartir y hablar de música sin algoritmo,</text><text class="b" x="300" y="450">fuera de las estructuras coloniales y decadentes a las</text><text class="b" x="300" y="480">que recaemos hoy.</text><text class="b" x="300" y="510"></text><text class="b" x="300" y="540">Bienvenidx</text><text class="s" x="300" y="556">— LOS CUSTODIOS</text>
  
</svg>