<svg viewBox="0 0 1000 640" xmlns="http://www.w3.org/2000/svg" role="img">
  <title>Tarjeta </title>
  <defs>
    <filter id="pencil" x="-5%" y="-5%" width="110%" height="110%">
      <feTurbulence type="fractalNoise" baseFrequency="0.016 0.022" numOctaves="2" seed="3" result="n"/>
      <feDisplacementMap in="SourceGraphic" in2="n" scale="1.3" xChannelSelector="R" yChannelSelector="G"/>
    </filter>
    <filter id="grain" x="0" y="0" width="100%" height="100%">
      <feTurbulence type="fractalNoise" baseFrequency="0.9" numOctaves="2" seed="11" result="g"/>
      <feColorMatrix in="g" type="matrix" values="0 0 0 0 0 0 0 0 0 0 0 0 0 0 0 0 0 0 0.03 0"/>
      <feComposite in2="SourceGraphic" operator="over"/>
    </filter>
    <style>
      .h { font-family:Fraunces, Georgia, 'Times New Roman', serif; font-size:34px; fill:#1c1813; fill-opacity:0.92; }
      .b { font-family:'IBM Plex Mono', 'Courier New', monospace; font-size:16px; fill:#1c1813; fill-opacity:0.86; letter-spacing:0.2px; }
      .c { font-family:Fraunces, Georgia, 'Times New Roman', serif; font-style:italic; font-size:17px; fill:#1c1813; fill-opacity:0.62; }
      .s { font-family:'IBM Plex Mono', 'Courier New', monospace; font-size:13px; fill:#1c1813; fill-opacity:0.5; letter-spacing:2px; }
      .folio { font-family:'IBM Plex Mono', 'Courier New', monospace; font-size:15px; fill:#1c1813; fill-opacity:0.55; letter-spacing:5px; }
      .lbl { font-family:'IBM Plex Mono', 'Courier New', monospace; font-size:13px; letter-spacing:1px; }
      .sym { font-family:'IBM Plex Mono', 'Courier New', monospace; font-size:20px; font-weight:600; letter-spacing:1px; }
      .glyph { fill:none; stroke:#1c1813; stroke-opacity:0.5; stroke-width:1.6; stroke-linecap:round; stroke-linejoin:round; }
    </style>
  </defs>
  <rect width="1000" height="640" fill="#fbf7ee"/>
  <rect width="1000" height="640" fill="#fbf7ee" filter="url(#grain)"/>
  <rect x="28" y="28" width="944" height="584" fill="none" stroke="#1c1813" stroke-opacity="0.26" stroke-width="1.5"/>
  <g filter="url(#pencil)"><rect x="57.5" y="85.5" width="204" height="474" rx="3" fill="none" stroke="#ffffff" stroke-opacity="0.5" stroke-width="2"/>
    <rect x="56" y="84" width="204" height="474" rx="3" fill="none" stroke="#1c1813" stroke-opacity="0.36" stroke-width="1.6"/><g class="face" fill="none" stroke-linecap="round" stroke-linejoin="round">
    <g stroke="#ffffff" stroke-opacity="0.4" transform="translate(1,1.4)"><circle cx="158" cy="154" r="15" stroke-width="1.8"/><path d="M128 192 L80 158" stroke-width="2"/><path d="M188 192 L236 158" stroke-width="2"/><path d="M80 158 l-5 -4 m5 4 l-2 -6 m2 6 l1 -7 m-1 7 l4 -5" stroke-width="1.2"/><path d="M236 158 l5 -4 m-5 4 l2 -6 m-2 6 l-1 -7 m1 7 l-4 -5" stroke-width="1.2"/><path d="M124 192 L192 192 L204 322 L112 322 Z" stroke-width="2"/></g>
    <g stroke="#1c1813" stroke-opacity="0.55"><circle cx="158" cy="154" r="15" stroke-width="1.8"/><path d="M128 192 L80 158" stroke-width="2"/><path d="M188 192 L236 158" stroke-width="2"/><path d="M80 158 l-5 -4 m5 4 l-2 -6 m2 6 l1 -7 m-1 7 l4 -5" stroke-width="1.2"/><path d="M236 158 l5 -4 m-5 4 l2 -6 m-2 6 l-1 -7 m1 7 l-4 -5" stroke-width="1.2"/><path d="M124 192 L192 192 L204 322 L112 322 Z" stroke-width="2"/></g>
  </g><circle cx="153" cy="152" r="2" fill="#1c1813" fill-opacity="0.55"/><circle cx="163" cy="152" r="2" fill="#1c1813" fill-opacity="0.55"/><g class="glyph"><g transform="translate(95,360) scale(0.85)"><path d="M3 12 a5 5 0 1 0 10 0 a5 5 0 1 0 -10 0"/></g><g transform="translate(110.3,360) scale(0.85)"><path d="M8 3 L14 21 L2 21 Z"/></g><g transform="translate(125.6,360) scale(0.85)"><path d="M5 3 V22 M12 3 L5 12 L12 22"/></g><g transform="translate(140.9,360) scale(0.85)"><path d="M2 12 Q8 5 14 12 Q8 19 2 12 Z"/></g><g transform="translate(156.20000000000002,360) scale(0.85)"><path d="M4 3 V22 M12 3 V22 M4 12 H12"/></g><g transform="translate(171.50000000000003,360) scale(0.85)"><path d="M5 3 V22 M5 4 H12 M5 12 H11 M5 21 H12"/></g><g transform="translate(186.80000000000004,360) scale(0.85)"><path d="M8 3 V21 M3 7 L13 17 M13 7 L3 17"/></g><g transform="translate(202.10000000000005,360) scale(0.85)"><path d="M8 3 L14 21 L2 21 Z"/></g></g></g>
  <text class="folio" x="300" y="100"></text>
  <text class="h" x="300" y="158">Siguientes pasos.</text><text class="b" x="300" y="232">1. Utiliza tu código de acceso para hacer tu perfil.</text><text class="b" x="300" y="262"></text><text class="b" x="300" y="292">2. Comenta, saluda en el foro, publica cualquier</text><text class="b" x="300" y="322">cosa... no lo pienses mucho!</text><text class="b" x="300" y="352"></text><text class="b" x="300" y="382">Si quieres invitar a alguien al beta, responde</text><text class="b" x="300" y="412">al mail que te mandamos y comparte el contacto</text><text class="b" x="300" y="442">de la persona.</text><text class="c" x="300" y="502">La puerta está abierta.</text>
  <g filter="url(#pencil)"><path d="M800 556 V370 A52 52 0 0 1 904 370 V556" fill="none" stroke="#1c1813" stroke-opacity="0.5" stroke-width="2.4"/><path d="M800 556 V370 A52 52 0 0 1 866 320 L866 556 Z" fill="#f97316" fill-opacity="0.08"/><path d="M866 320 L866 556" stroke="#1c1813" stroke-opacity="0.5" stroke-width="2"/><path d="M870 388 L904 372" stroke="#f97316" stroke-opacity="0.5" stroke-width="1.6"/><path d="M870 458 L904 442" stroke="#f97316" stroke-opacity="0.5" stroke-width="1.6"/><path d="M870 528 L904 512" stroke="#f97316" stroke-opacity="0.5" stroke-width="1.6"/><path d="M870 598 L904 582" stroke="#f97316" stroke-opacity="0.5" stroke-width="1.6"/><circle cx="857" cy="437" r="3" fill="#1c1813" fill-opacity="0.5"/></g>
</svg>