<svg viewBox="0 0 1000 640" xmlns="http://www.w3.org/2000/svg" role="img">
  <title>Tarjeta NIVELES</title>
  <defs>
    <filter id="pencil" x="-5%" y="-5%" width="110%" height="110%">
      <feTurbulence type="fractalNoise" baseFrequency="0.016 0.022" numOctaves="2" seed="52" result="n"/>
      <feDisplacementMap in="SourceGraphic" in2="n" scale="1.3" xChannelSelector="R" yChannelSelector="G"/>
    </filter>
    <filter id="grain" x="0" y="0" width="100%" height="100%">
      <feTurbulence type="fractalNoise" baseFrequency="0.9" numOctaves="2" seed="11" result="g"/>
      <feColorMatrix in="g" type="matrix" values="0 0 0 0 0 0 0 0 0 0 0 0 0 0 0 0 0 0 0.03 0"/>
      <feComposite in2="SourceGraphic" operator="over"/>
    </filter>
    <style>
      .h { font-family:Fraunces, Georgia, 'Times New Roman', serif; font-size:34px; fill:#1c1813; fill-opacity:0.92; }
      .b { font-family:'IBM Plex Mono', 'Courier New', monospace; font-size:16px; fill:#1c1813; fill-opacity:0.86; letter-spacing:0.2px; }
      .c { font-family:Fraunces, Georgia, 'Times New Roman', serif; font-style:italic; font-size:17px; fill:#1c1813; fill-opacity:0.62; }
      .s { font-family:'IBM Plex Mono', 'Courier New', monospace; font-size:13px; fill:#1c1813; fill-opacity:0.5; letter-spacing:2px; }
      .folio { font-family:'IBM Plex Mono', 'Courier New', monospace; font-size:15px; fill:#1c1813; fill-opacity:0.55; letter-spacing:5px; }
      .lbl { font-family:'IBM Plex Mono', 'Courier New', monospace; font-size:13px; letter-spacing:1px; }
      .sym { font-family:'IBM Plex Mono', 'Courier New', monospace; font-size:20px; font-weight:600; letter-spacing:1px; }
      .glyph { fill:none; stroke:#1c1813; stroke-opacity:0.5; stroke-width:1.6; stroke-linecap:round; stroke-linejoin:round; }
    </style>
  </defs>
  <rect width="1000" height="640" fill="#fbf7ee"/>
  <rect width="1000" height="640" fill="#fbf7ee" filter="url(#grain)"/>
  <rect x="28" y="28" width="944" height="584" fill="none" stroke="#1c1813" stroke-opacity="0.26" stroke-width="1.5"/>
  <g filter="url(#pencil)"><rect x="57.5" y="85.5" width="204" height="474" rx="3" fill="none" stroke="#ffffff" stroke-opacity="0.5" stroke-width="2"/>
    <rect x="56" y="84" width="204" height="474" rx="3" fill="none" stroke="#1c1813" stroke-opacity="0.36" stroke-width="1.6"/><g class="face" fill="none" stroke-linecap="round" stroke-linejoin="round">
    <g stroke="#ffffff" stroke-opacity="0.4" transform="translate(1,1.4)"><rect x="86" y="142" width="144" height="150" rx="3" stroke-width="1.6"/><path d="M110 172 H206" stroke-width="2.4"/><path d="M110 192 Q128 196 146 192" stroke-width="2.6"/><path d="M170 192 Q188 196 206 192" stroke-width="2.6"/><path d="M158 172 V216" stroke-width="2.6"/><path d="M128 216 Q158 246 188 216" stroke-width="2"/></g>
    <g stroke="#1c1813" stroke-opacity="0.55"><rect x="86" y="142" width="144" height="150" rx="3" stroke-width="1.6"/><path d="M110 172 H206" stroke-width="2.4"/><path d="M110 192 Q128 196 146 192" stroke-width="2.6"/><path d="M170 192 Q188 196 206 192" stroke-width="2.6"/><path d="M158 172 V216" stroke-width="2.6"/><path d="M128 216 Q158 246 188 216" stroke-width="2"/></g>
  </g><g class="glyph"><g transform="translate(95,360) scale(0.85)"><path d="M8 2 V22"/></g><g transform="translate(110.3,360) scale(0.85)"><path d="M2 4 L8 12 L14 4 M8 12 V22"/></g><g transform="translate(125.6,360) scale(0.85)"><path d="M3 4 L8 20 L13 4"/></g><g transform="translate(140.9,360) scale(0.85)"><path d="M4 3 V22 M12 3 V22 M4 12 H12"/></g><g transform="translate(156.20000000000002,360) scale(0.85)"><path d="M3 12 a5 5 0 1 0 10 0 a5 5 0 1 0 -10 0"/></g><g transform="translate(171.50000000000003,360) scale(0.85)"><path d="M4 3 V22 M12 3 V22 M4 12 H12"/></g><g transform="translate(186.80000000000004,360) scale(0.85)"><path d="M6 3 V22 M11 3 V22 M3 9 H14 M3 16 H14"/></g></g></g>
  <text class="folio" x="300" y="100">NIVELES</text>
  <text class="h" x="300" y="158">Todos los caminos</text><text class="h" x="300" y="206">llevan al centro.</text><text class="b" x="300" y="280">El acceso nunca se paga.</text><text class="b" x="300" y="310">Abierto para todos.</text><text class="b" x="300" y="340"></text><text class="b" x="300" y="370">Tu perfil, tu acceso y tu</text><text class="b" x="300" y="400">cosecha evolucionan conforme</text><text class="b" x="300" y="430">compartes tus proyectos</text><text class="b" x="300" y="460">y eventos.</text>
  <g filter="url(#pencil)"><circle cx="800" cy="362" r="150" fill="none" stroke="#d2a24f" stroke-opacity="0.9" stroke-width="3"/><text class="lbl" x="800" y="227" fill="#d2a24f" text-anchor="middle">00 · USUARIO</text><circle cx="800" cy="362" r="118" fill="none" stroke="#c084fc" stroke-opacity="0.9" stroke-width="3"/><text class="lbl" x="800" y="259" fill="#c084fc" text-anchor="middle">01 · CURADOR</text><circle cx="800" cy="362" r="88" fill="none" stroke="#4ade80" stroke-opacity="0.9" stroke-width="3"/><text class="lbl" x="800" y="289" fill="#4ade80" text-anchor="middle">02 · GUÍA</text><circle cx="800" cy="362" r="60" fill="none" stroke="#22d3ee" stroke-opacity="0.9" stroke-width="3"/><text class="lbl" x="800" y="317" fill="#22d3ee" text-anchor="middle">03 · INSIDER</text><circle cx="800" cy="362" r="32" fill="#f97316" fill-opacity="0.92"/><circle cx="800" cy="362" r="32" fill="none" stroke="#f97316" stroke-width="3"/><text class="lbl" x="800" y="367" fill="#3a1402" text-anchor="middle" letter-spacing="2">SOCIO</text></g>
</svg>